<svg xmlns="http://www.w3.org/2000/svg" width="63.898" height="49.585" viewBox="0 0 63.898 49.585">
  <path id="iconfinder_LIBRARY_2_753918" d="M62.869,16.842h-.057a1.275,1.275,0,0,1-1.285-1.387V8.542a1.335,1.335,0,0,0-1.334-1.336H40.428c-4.959,0-6.809,1.838-7.268,2.415l-.126.175v0l-.391.536h0c-.525.721-.982.414-1.2.178l-.748-.933-.37-.446c-.622-.653-2.243-1.928-5.456-1.928H3.808A1.336,1.336,0,0,0,2.472,8.542v6.825c0,1.2-.649,1.435-1.047,1.475h-.3C.8,16.862.051,17.05.051,18.437V50.966A1.444,1.444,0,0,0,1.5,52.41H20.714c6.131,0,8.8,2.312,9.6,3.2l.457.566h0a1.632,1.632,0,0,0,2.518,0h0l.268-.314h0l0,0,.342-.4c.01-.012.092-.1.211-.226,1.023-.995,3.58-2.823,8.58-2.823H62.5a1.444,1.444,0,0,0,1.445-1.444V18.122C63.949,16.946,63.1,16.848,62.869,16.842Zm-4.318,29.02a1.177,1.177,0,0,1-1.2,1.158H41.055c-5.8,0-7.9,2.62-7.9,2.62L32.884,50l-.125.173h0c-.553.751-1.366.006-1.37,0l-.375-.469c-.278-.334-2.408-2.685-7.563-2.685H6.65a1.178,1.178,0,0,1-1.2-1.158V11.2a1.178,1.178,0,0,1,1.2-1.158H19.693c9.7,0,10.621,5.511,10.684,7.112V41.259c0,1.752.835,2.081,1.306,2.129h.7c.48-.048,1.243-.333,1.243-1.7V16.842h-.008c.072-2.005.854-6.8,6.689-6.8H57.35a1.178,1.178,0,0,1,1.2,1.158Z" transform="translate(-0.051 -7.206)" fill="#707070"/>
</svg>
