<svg xmlns="http://www.w3.org/2000/svg" width="53.866" height="53.976" viewBox="0 0 53.866 53.976">
  <g id="iconfinder_Chinese_New_Year-01_7322753" transform="translate(-8.686 -8.501)">
    <path id="Path_2" data-name="Path 2" d="M57.039,32.843a1.032,1.032,0,0,0-1.032,1.032,2.332,2.332,0,0,1-2.33,2.33h-.665v-2.33a1.032,1.032,0,0,0-1.032-1.032H49.4V26.469a6.5,6.5,0,0,0,5.869-6.059,1.032,1.032,0,0,0-1.82-.727c-.026.03-.055.058-.086.088a4.4,4.4,0,0,1-3.137,1.3h-.915V18.826c0-.008,0-.015,0-.023a1.053,1.053,0,0,0-.018-.183c0-.005,0-.01,0-.015a1.028,1.028,0,0,0-.048-.156c-.007-.017-.014-.034-.021-.05a1.054,1.054,0,0,0-.069-.127c-.006-.01-.011-.02-.018-.03l0-.008L45.957,13.7a4.411,4.411,0,0,0,3.087-4.169,1.032,1.032,0,1,0-2.065,0,2.388,2.388,0,0,1-2.437,2.33H26.125a2.388,2.388,0,0,1-2.437-2.33,1.032,1.032,0,1,0-2.065,0,4.428,4.428,0,0,0,3.568,4.3l-3.076,4.4,0,.008c-.006.009-.012.02-.018.03a1.053,1.053,0,0,0-.069.127c-.008.017-.015.033-.021.05a1.008,1.008,0,0,0-.048.156c0,.005,0,.01,0,.015a1.025,1.025,0,0,0-.018.183c0,.008,0,.015,0,.023v2.246H21.1a4.44,4.44,0,0,1-3.254-1.424,1.032,1.032,0,0,0-1.789.764,6.509,6.509,0,0,0,5.87,6.058v6.374H19.348a1.032,1.032,0,0,0-1.032,1.032v2.33h-.665a2.332,2.332,0,0,1-2.33-2.33,1.032,1.032,0,1,0-2.065,0,4.4,4.4,0,0,0,4.283,4.389l-2.6,4.377a1,1,0,0,0-.06.119l-.007.017a1.034,1.034,0,0,0-.049.158c0,.016-.007.032-.01.047a1.039,1.039,0,0,0-.018.181s0,0,0,0v3.2A1.032,1.032,0,0,0,15.831,47.4h2.485V60.412h-8.6a1.032,1.032,0,0,0,0,2.065h45.6a1.032,1.032,0,1,0,0-2.065h-2.31V47.4H55.5a1.032,1.032,0,0,0,1.032-1.032v-3.2s0,0,0,0a1.04,1.04,0,0,0-.018-.181c0-.016-.006-.032-.01-.047a1.034,1.034,0,0,0-.049-.158c0-.006,0-.012-.007-.017a1,1,0,0,0-.06-.119l-2.6-4.377a4.4,4.4,0,0,0,4.283-4.389A1.032,1.032,0,0,0,57.039,32.843Zm-3.355,9.293h-7.9V38.27h5.608ZM42.79,13.928h.8l2.7,3.866H42.33l-1.076-3.866Zm-6.1,0h2.417l1.076,3.866H36.695Zm-4.479,0H34.63v3.866H31.14Zm-4.573,0h2.43L29,17.793H24.942Zm-3.649,5.931H47.244v1.136H23.994Zm-4.862,2.97a6.481,6.481,0,0,0,1.971.308h29.12a6.527,6.527,0,0,0,1.964-.3q-.129.154-.272.3a4.41,4.41,0,0,1-3.139,1.3H22.552A4.442,4.442,0,0,1,19.133,22.829Zm28.2,3.671v6.343H45.783V26.5Zm-3.614,0v6.343H27.608V26.5Zm-18.175,0v6.343H23.994V26.5Zm0,33.912H20.38V58.346h5.163Zm0-4.13H20.38V47.4h5.163Zm0-10.945h-8.68V44.2h8.68v1.136Zm0-3.2h-7.9l2.293-3.866h5.608v3.866Zm14.97,18.276h-9.7V46.441a4.937,4.937,0,0,1,4.932-4.932,4.774,4.774,0,0,1,4.768,4.768Zm3.205-17.244V60.412H42.578V46.278a6.841,6.841,0,0,0-6.833-6.833,7,7,0,0,0-7,7V60.412H27.608V38.27H43.719ZM26.576,36.205h-6.2v-1.3H50.947v1.3H26.576ZM50.947,60.412H45.784V58.346h5.163Zm0-4.13H45.784V47.4h5.163ZM54.464,44.2v1.136h-8.68V44.2Z" transform="translate(0)" fill="#707070"/>
    <path id="Path_3" data-name="Path 3" d="M179.837,184.5h-2.3a1.032,1.032,0,1,0,0,2.065h2.3a1.032,1.032,0,0,0,0-2.065Z" transform="translate(-118.317 -124.088)" fill="#707070"/>
  </g>
</svg>
