<?xml version="1.0" ?><svg enable-background="new 0 0 200 200" id="Layer_1" version="1.1" viewBox="0 0 200 200" xml:space="preserve" xmlns="http://www.w3.org/2000/svg" xmlns:xlink="http://www.w3.org/1999/xlink"><g><path d="M172.621,91.03c-1.933,0-3.5,1.567-3.5,3.5c0,4.355-3.543,7.899-7.899,7.899h-2.254V94.53   c0-1.933-1.567-3.5-3.5-3.5h-8.752V69.421c5.092-0.479,9.821-2.693,13.489-6.361c3.809-3.81,6.085-8.847,6.41-14.183   c0.091-1.506-0.793-2.902-2.195-3.462c-1.4-0.56-3.004-0.158-3.976,0.997c-0.087,0.103-0.188,0.198-0.29,0.299   c-2.836,2.844-6.614,4.41-10.637,4.41h-3.102v-7.614c0-0.026-0.007-0.051-0.008-0.077c-0.005-0.208-0.021-0.415-0.062-0.619   c-0.004-0.018-0.01-0.034-0.014-0.051c-0.039-0.18-0.096-0.356-0.164-0.53c-0.023-0.058-0.047-0.114-0.072-0.17   c-0.067-0.147-0.145-0.29-0.233-0.429c-0.021-0.033-0.038-0.069-0.061-0.101c-0.006-0.009-0.01-0.018-0.016-0.027l-10.736-15.368   c6.07-1.969,10.465-7.556,10.465-14.134c0-1.933-1.567-3.5-3.5-3.5s-3.5,1.567-3.5,3.5c0,4.356-3.706,7.899-8.261,7.899h-1.384   h-4.553H73.747h-2.613H67.81c-4.555,0-8.261-3.543-8.261-7.899c0-1.933-1.567-3.5-3.5-3.5s-3.5,1.567-3.5,3.5   c0,7.156,5.197,13.147,12.098,14.573L54.218,41.502c-0.006,0.009-0.01,0.018-0.016,0.027c-0.022,0.032-0.04,0.068-0.061,0.101   c-0.088,0.139-0.166,0.282-0.233,0.429c-0.026,0.056-0.05,0.112-0.072,0.17c-0.068,0.173-0.125,0.349-0.164,0.53   c-0.004,0.018-0.011,0.034-0.014,0.051c-0.041,0.204-0.058,0.411-0.062,0.619c-0.001,0.026-0.008,0.051-0.008,0.077v7.614h-2.802   c-4.179,0-8.2-1.76-11.032-4.829c-1.005-1.089-2.586-1.427-3.947-0.845c-1.362,0.582-2.21,1.958-2.118,3.436   c0.675,10.867,9.238,19.521,19.9,20.539V91.03h-8.753c-1.933,0-3.5,1.567-3.5,3.5v7.899H39.08c-4.355,0-7.899-3.543-7.899-7.899   c0-1.933-1.567-3.5-3.5-3.5s-3.5,1.567-3.5,3.5c0,8.087,6.481,14.676,14.52,14.88l-8.801,14.841   c-0.078,0.131-0.146,0.266-0.205,0.404c-0.008,0.019-0.015,0.04-0.023,0.059c-0.071,0.174-0.124,0.353-0.166,0.534   c-0.012,0.053-0.023,0.107-0.033,0.161c-0.037,0.203-0.061,0.408-0.062,0.614c0,0.004-0.001,0.008-0.001,0.013v10.853   c0,1.933,1.567,3.5,3.5,3.5h8.424v33.608V184.5H12.186c-1.933,0-3.5,1.567-3.5,3.5s1.567,3.5,3.5,3.5h32.648h24.505h10.868h39.887   h10.867h24.505h11.332c1.933,0,3.5-1.567,3.5-3.5s-1.567-3.5-3.5-3.5h-7.832v-10.503v-33.608h8.424c1.933,0,3.5-1.567,3.5-3.5   v-10.853c0-0.004-0.001-0.008-0.001-0.013c-0.001-0.206-0.025-0.411-0.062-0.614c-0.01-0.054-0.021-0.107-0.033-0.161   c-0.042-0.181-0.095-0.36-0.166-0.534c-0.008-0.02-0.014-0.04-0.023-0.059c-0.059-0.138-0.127-0.273-0.205-0.404L161.6,109.41   c8.039-0.203,14.521-6.792,14.521-14.88C176.121,92.597,174.554,91.03,172.621,91.03z M161.246,122.537h-26.785v-13.107h19.012   L161.246,122.537z M124.313,26.899h2.729l9.156,13.107h-13.445l-3.647-13.107H124.313z M103.646,26.899h8.194l3.647,13.107h-11.841   V26.899z M88.461,26.899h8.185v13.107H84.814L88.461,26.899z M72.958,26.899h0.789h7.448l-3.647,13.107H63.801L72.958,26.899z    M60.587,47.007h19.608c0.005,0,0.01,0.001,0.014,0.001c0.004,0,0.008-0.001,0.012-0.001h39.859c0.004,0,0.008,0.001,0.012,0.001   c0.005,0,0.01-0.001,0.014-0.001h19.306v3.852H60.587V47.007z M44.104,57.078c2.143,0.684,4.396,1.043,6.681,1.043h98.73   c2.294,0,4.534-0.348,6.66-1.018c-0.291,0.348-0.598,0.685-0.921,1.008c-2.846,2.846-6.625,4.413-10.641,4.413h-1.369   c-0.01,0-0.019-0.003-0.029-0.003h-12.253c-0.01,0-0.019,0.003-0.029,0.003H69.368c-0.01,0-0.019-0.003-0.029-0.003H57.087   c-0.01,0-0.019,0.003-0.029,0.003h-1.362C51.058,62.524,46.876,60.411,44.104,57.078z M139.714,69.524V91.03h-5.253V69.524H139.714   z M127.461,69.524V91.03H72.839V69.524H127.461z M65.839,69.524V91.03h-5.252V69.524H65.839z M65.839,184.5H48.334v-7.003h17.505   V184.5z M65.839,170.497H48.334v-30.108h17.505V170.497z M65.839,133.389H44.834H36.41v-3.853h29.43V133.389z M65.839,122.537   H39.055l7.773-13.107h19.012V122.537z M116.594,184.5H83.707v-47.367c0-9.22,7.5-16.72,16.72-16.72   c8.915,0,16.167,7.252,16.167,16.167V184.5z M127.461,126.037v10.853v37.108V184.5h-3.867v-47.92   c0-12.774-10.393-23.167-23.167-23.167c-13.079,0-23.72,10.641-23.72,23.72V184.5h-3.868v-10.503v-37.108v-10.853v-16.607h54.622   V126.037z M69.339,102.429H48.334V98.03h8.753h12.252h61.622h12.253h8.752v4.399h-21.005H69.339z M151.967,184.5h-17.505v-7.003   h17.505V184.5z M151.967,170.497h-17.505v-30.108h17.505V170.497z M163.891,129.537v3.853h-8.424h-21.005v-3.853H163.891z" fill="#1D1D1B"/><path d="M187.814,184.5H180c-1.933,0-3.5,1.567-3.5,3.5s1.567,3.5,3.5,3.5h7.814c1.933,0,3.5-1.567,3.5-3.5   S189.747,184.5,187.814,184.5z" fill="#1D1D1B"/></g></svg>